<svg width="228" height="70" viewBox="0 0 200 88" fill="none" xmlns="http://www.w3.org/2000/svg">
<path fillRule="evenodd" clipRule="evenodd" d="M47.9385 20.2023C45.4453 20.6378 42.9645 21.1632 40.5 21.7775C38.0355 21.1631 35.5548 20.6378 33.0615 20.2023C35.1624 21.1517 37.2971 22.289 39.5499 23.5387C39.8346 23.697 40.0747 23.9441 40.2428 24.2518C40.4108 24.5595 40.4999 24.9154 40.5 25.2786C40.5 24.5365 40.8679 23.8603 41.4501 23.5387C43.7029 22.289 45.8376 21.1497 47.9385 20.2023V20.2023ZM40.5 68.5894C40.5 69.7093 39.7018 70.5269 38.8125 70.5405V70.9222C28.2336 68.8665 20.7596 68.7367 10.125 70.8796V25.2514C11.2453 24.9569 12.3705 24.6875 13.5 24.4435V20.5046C11.7686 20.8611 9.95625 21.3028 8.02744 21.8376C7.66263 21.9393 7.33826 22.1791 7.10654 22.5182C6.87482 22.8574 6.74924 23.2762 6.75 23.7072V73.1891C6.75 74.4155 7.73382 75.33 8.78175 75.1014C20.7225 72.4857 28.2302 72.6407 40.176 75.1304C40.3902 75.1755 40.6098 75.1755 40.824 75.1304C52.7698 72.6407 60.2775 72.4857 72.2183 75.1014C72.4645 75.156 72.7182 75.1477 72.9613 75.077C73.2044 75.0064 73.431 74.8751 73.625 74.6926C73.8189 74.51 73.9755 74.2807 74.0835 74.0208C74.1915 73.761 74.2484 73.477 74.25 73.1891V23.7092C74.2512 23.2778 74.1257 22.8585 73.894 22.519C73.6622 22.1795 73.3377 21.9394 72.9726 21.8376C71.1603 21.3311 69.3353 20.8865 67.5 20.5046V24.4435C68.5868 24.676 69.7073 24.9472 70.875 25.2514V70.8796C60.2404 68.7367 52.7664 68.8645 42.1875 70.9222V70.5405C41.2982 70.525 40.5 69.7074 40.5 68.5894V68.5894Z" fill="#D27C2C"/>
<path fillRule="evenodd" clipRule="evenodd" d="M15.1875 20.3573V64.0441C15.1903 64.0502 15.1944 64.0555 15.1993 64.0596C15.2117 64.0711 15.2261 64.0793 15.2416 64.0836C15.257 64.088 15.2731 64.0884 15.2888 64.0847C24.3 62.186 31.0719 64.511 38.7703 68.5991C38.7746 68.6011 38.7792 68.6024 38.7838 68.603H38.7872C38.7944 68.6023 38.8013 68.5996 38.8074 68.5952C38.8092 68.5941 38.8109 68.5928 38.8125 68.5914V25.2805C30.4087 20.6227 24.0739 17.763 15.1875 20.3573ZM14.2999 16.6179C24.4569 13.6322 31.7604 17.0674 40.284 21.793C40.8548 22.11 41.3362 22.6054 41.6729 23.2222C42.0096 23.8391 42.1879 24.5525 42.1875 25.2805V68.5875C42.1875 71.4686 39.5769 73.2917 37.3545 72.1137C29.9632 68.1903 23.9389 66.2005 15.8979 67.8958C13.8561 68.3279 11.8125 66.5802 11.8125 64.0441V20.3282C11.8125 18.6232 12.7963 17.0597 14.2999 16.6179V16.6179Z" fill="#D27C2C"/>
<path fillRule="evenodd" clipRule="evenodd" d="M65.8125 20.3573V64.0441C65.8094 64.0506 65.8047 64.056 65.799 64.0596C65.7868 64.0708 65.7727 64.0789 65.7575 64.0832C65.7424 64.0876 65.7266 64.0881 65.7112 64.0847C56.7 62.186 49.9297 64.511 42.2297 68.5991C42.2254 68.6011 42.2208 68.6024 42.2162 68.603H42.2128C42.2056 68.6023 42.1987 68.5996 42.1926 68.5952L42.1875 68.5875V25.2786C50.5912 20.6208 56.9261 17.7611 65.8125 20.3573V20.3573ZM66.7001 16.6179C56.5431 13.6322 49.2396 17.0674 40.716 21.793C40.1455 22.1104 39.6643 22.6058 39.3277 23.2226C38.991 23.8394 38.8125 24.5526 38.8125 25.2805V68.5914C38.8125 71.4724 41.4231 73.2956 43.6455 72.1157C51.0367 68.1922 57.0611 66.2024 65.1021 67.8977C67.1439 68.3279 69.1875 66.5822 69.1875 64.0441V20.3282C69.1907 19.4805 68.9479 18.6556 68.4975 17.9837C68.0471 17.3119 67.4147 16.8314 66.7001 16.6179V16.6179ZM18.5794 56.1933C24.7725 56.1197 28.2268 56.8366 34.7996 59.9191L36.0754 56.3309C29.1111 53.0662 25.2112 52.2389 18.5456 52.3183L18.5794 56.1933ZM18.5794 48.4433C24.7725 48.3697 28.2268 49.0866 34.7996 52.1691L36.0754 48.5809C29.1111 45.3162 25.2112 44.4889 18.5456 44.5683L18.5794 48.4433ZM18.5794 40.6933C24.7725 40.6197 28.2268 41.3366 34.7996 44.4191L36.0754 40.8309C29.1111 37.5662 25.2112 36.7389 18.5456 36.8183L18.5794 40.6933ZM22.7812 25.1875V31H19.4062V25.1875H22.7812ZM28.6875 27.125V32.9375H25.3125V27.125H28.6875ZM34.5937 29.0625V34.875H31.2187V29.0625H34.5937Z" fill="#D27C2C"/>
<path fillRule="evenodd" clipRule="evenodd" d="M62.4206 56.1933C56.2275 56.1197 52.7732 56.8366 46.2004 59.9191L44.9246 56.3309C51.8889 53.0662 55.7887 52.2389 62.4544 52.3183L62.4206 56.1933V56.1933ZM62.4206 48.4433C56.2275 48.3697 52.7732 49.0866 46.2004 52.1691L44.9246 48.5809C51.8889 45.3162 55.7887 44.4889 62.4544 44.5683L62.4206 48.4433V48.4433ZM62.4206 40.6933C56.2275 40.6197 52.7732 41.3366 46.2004 44.4191L44.9246 40.8309C51.8889 37.5662 55.7887 36.7389 62.4544 36.8183L62.4206 40.6933V40.6933ZM58.2187 25.1875V31H61.5937V25.1875H58.2187ZM52.3125 27.125V32.9375H55.6875V27.125H52.3125ZM46.4062 29.0625V34.875H49.7812V29.0625H46.4062Z" fill="#D27C2C"/>
<path d="M96.8182 64V40.7273H104.955C106.576 40.7273 107.913 41.0076 108.966 41.5682C110.019 42.1212 110.803 42.8674 111.318 43.8068C111.833 44.7386 112.091 45.7727 112.091 46.9091C112.091 47.9091 111.913 48.7348 111.557 49.3864C111.208 50.0379 110.746 50.553 110.17 50.9318C109.602 51.3106 108.985 51.5909 108.318 51.7727V52C109.03 52.0455 109.746 52.2955 110.466 52.75C111.186 53.2045 111.788 53.8561 112.273 54.7045C112.758 55.553 113 56.5909 113 57.8182C113 58.9848 112.735 60.0341 112.205 60.9659C111.674 61.8977 110.837 62.6364 109.693 63.1818C108.549 63.7273 107.061 64 105.227 64H96.8182ZM99.6364 61.5H105.227C107.068 61.5 108.375 61.1439 109.148 60.4318C109.928 59.7121 110.318 58.8409 110.318 57.8182C110.318 57.0303 110.117 56.303 109.716 55.6364C109.314 54.9621 108.742 54.4242 108 54.0227C107.258 53.6136 106.379 53.4091 105.364 53.4091H99.6364V61.5ZM99.6364 50.9545H104.864C105.712 50.9545 106.477 50.7879 107.159 50.4545C107.848 50.1212 108.394 49.6515 108.795 49.0455C109.205 48.4394 109.409 47.7273 109.409 46.9091C109.409 45.8864 109.053 45.0189 108.341 44.3068C107.629 43.5871 106.5 43.2273 104.955 43.2273H99.6364V50.9545ZM124.358 64.3636C122.782 64.3636 121.4 63.9886 120.21 63.2386C119.028 62.4886 118.104 61.4394 117.438 60.0909C116.778 58.7424 116.449 57.1667 116.449 55.3636C116.449 53.5455 116.778 51.9583 117.438 50.6023C118.104 49.2462 119.028 48.1932 120.21 47.4432C121.4 46.6932 122.782 46.3182 124.358 46.3182C125.934 46.3182 127.313 46.6932 128.494 47.4432C129.684 48.1932 130.608 49.2462 131.267 50.6023C131.934 51.9583 132.267 53.5455 132.267 55.3636C132.267 57.1667 131.934 58.7424 131.267 60.0909C130.608 61.4394 129.684 62.4886 128.494 63.2386C127.313 63.9886 125.934 64.3636 124.358 64.3636ZM124.358 61.9545C125.555 61.9545 126.54 61.6477 127.312 61.0341C128.085 60.4205 128.657 59.6136 129.028 58.6136C129.4 57.6136 129.585 56.5303 129.585 55.3636C129.585 54.197 129.4 53.1098 129.028 52.1023C128.657 51.0947 128.085 50.2803 127.312 49.6591C126.54 49.0379 125.555 48.7273 124.358 48.7273C123.161 48.7273 122.176 49.0379 121.403 49.6591C120.631 50.2803 120.059 51.0947 119.688 52.1023C119.316 53.1098 119.131 54.197 119.131 55.3636C119.131 56.5303 119.316 57.6136 119.688 58.6136C120.059 59.6136 120.631 60.4205 121.403 61.0341C122.176 61.6477 123.161 61.9545 124.358 61.9545ZM143.452 64.3636C141.876 64.3636 140.493 63.9886 139.304 63.2386C138.122 62.4886 137.198 61.4394 136.531 60.0909C135.872 58.7424 135.543 57.1667 135.543 55.3636C135.543 53.5455 135.872 51.9583 136.531 50.6023C137.198 49.2462 138.122 48.1932 139.304 47.4432C140.493 46.6932 141.876 46.3182 143.452 46.3182C145.027 46.3182 146.406 46.6932 147.588 47.4432C148.777 48.1932 149.702 49.2462 150.361 50.6023C151.027 51.9583 151.361 53.5455 151.361 55.3636C151.361 57.1667 151.027 58.7424 150.361 60.0909C149.702 61.4394 148.777 62.4886 147.588 63.2386C146.406 63.9886 145.027 64.3636 143.452 64.3636ZM143.452 61.9545C144.649 61.9545 145.634 61.6477 146.406 61.0341C147.179 60.4205 147.751 59.6136 148.122 58.6136C148.493 57.6136 148.679 56.5303 148.679 55.3636C148.679 54.197 148.493 53.1098 148.122 52.1023C147.751 51.0947 147.179 50.2803 146.406 49.6591C145.634 49.0379 144.649 48.7273 143.452 48.7273C142.255 48.7273 141.27 49.0379 140.497 49.6591C139.724 50.2803 139.152 51.0947 138.781 52.1023C138.41 53.1098 138.224 54.197 138.224 55.3636C138.224 56.5303 138.41 57.6136 138.781 58.6136C139.152 59.6136 139.724 60.4205 140.497 61.0341C141.27 61.6477 142.255 61.9545 143.452 61.9545ZM157.955 57.6364L157.909 54.3182H158.455L166.091 46.5455H169.409L161.273 54.7727H161.045L157.955 57.6364ZM155.455 64V40.7273H158.136V64H155.455ZM166.545 64L159.727 55.3636L161.636 53.5L169.955 64H166.545Z" fill="black"/>
<path d="M96.8182 64H95.8182V65H96.8182V64ZM96.8182 40.7273V39.7273H95.8182V40.7273H96.8182ZM108.966 41.5682L108.496 42.4509L108.501 42.4535L108.966 41.5682ZM111.318 43.8068L110.441 44.2877L110.443 44.2906L111.318 43.8068ZM111.557 49.3864L110.679 48.9068L110.675 48.9147L111.557 49.3864ZM110.17 50.9318L109.621 50.0964L109.616 50.0998L110.17 50.9318ZM108.318 51.7727L108.055 50.808L107.318 51.0089V51.7727H108.318ZM108.318 52H107.318V52.9382L108.254 52.998L108.318 52ZM110.466 52.75L109.932 53.5955L109.932 53.5955L110.466 52.75ZM112.205 60.9659L113.074 61.4605L113.074 61.4605L112.205 60.9659ZM109.693 63.1818L109.263 62.2792L109.263 62.2792L109.693 63.1818ZM99.6364 61.5H98.6364V62.5H99.6364V61.5ZM109.148 60.4318L109.825 61.1672L109.826 61.1669L109.148 60.4318ZM109.716 55.6364L108.857 56.148L108.859 56.1523L109.716 55.6364ZM108 54.0227L107.517 54.8986L107.524 54.9023L108 54.0227ZM99.6364 53.4091V52.4091H98.6364V53.4091H99.6364ZM99.6364 50.9545H98.6364V51.9545H99.6364V50.9545ZM107.159 50.4545L106.724 49.5543L106.72 49.5562L107.159 50.4545ZM108.795 49.0455L107.967 48.486L107.962 48.4932L108.795 49.0455ZM108.341 44.3068L107.63 45.0102L107.634 45.0139L108.341 44.3068ZM99.6364 43.2273V42.2273H98.6364V43.2273H99.6364ZM97.8182 64V40.7273H95.8182V64H97.8182ZM96.8182 41.7273H104.955V39.7273H96.8182V41.7273ZM104.955 41.7273C106.468 41.7273 107.63 41.9899 108.496 42.4509L109.436 40.6855C108.196 40.0252 106.684 39.7273 104.955 39.7273V41.7273ZM108.501 42.4535C109.4 42.9256 110.031 43.5394 110.441 44.2876L112.195 43.326C111.575 42.1955 110.638 41.3168 109.431 40.6828L108.501 42.4535ZM110.443 44.2906C110.871 45.0644 111.091 45.9302 111.091 46.9091H113.091C113.091 45.6152 112.796 44.4129 112.193 43.323L110.443 44.2906ZM111.091 46.9091C111.091 47.7972 110.932 48.4445 110.679 48.9068L112.434 49.8659C112.894 49.0252 113.091 48.0209 113.091 46.9091H111.091ZM110.675 48.9147C110.399 49.4301 110.047 49.8158 109.621 50.0964L110.72 51.7672C111.445 51.2902 112.017 50.6457 112.439 49.858L110.675 48.9147ZM109.616 50.0998C109.138 50.4182 108.619 50.6541 108.055 50.808L108.581 52.7375C109.35 52.5277 110.066 52.203 110.725 51.7639L109.616 50.0998ZM107.318 51.7727V52H109.318V51.7727H107.318ZM108.254 52.998C108.77 53.0309 109.327 53.2131 109.932 53.5955L111 51.9045C110.166 51.3778 109.291 51.06 108.382 51.002L108.254 52.998ZM109.932 53.5955C110.494 53.9505 110.989 54.473 111.404 55.2007L113.141 54.2084C112.587 53.2391 111.877 52.4586 111 51.9045L109.932 53.5955ZM111.404 55.2007C111.784 55.8641 112 56.721 112 57.8182H114C114 56.4608 113.732 55.242 113.141 54.2084L111.404 55.2007ZM112 57.8182C112 58.8271 111.772 59.7033 111.335 60.4713L113.074 61.4605C113.697 60.3649 114 59.1425 114 57.8182H112ZM111.335 60.4713C110.924 61.195 110.257 61.8053 109.263 62.2792L110.124 64.0845C111.418 63.4674 112.425 62.6005 113.074 61.4605L111.335 60.4713ZM109.263 62.2792C108.3 62.7385 106.973 63 105.227 63V65C107.148 65 108.799 64.7161 110.124 64.0845L109.263 62.2792ZM105.227 63H96.8182V65H105.227V63ZM99.6364 62.5H105.227V60.5H99.6364V62.5ZM105.227 62.5C107.147 62.5 108.772 62.1384 109.825 61.1672L108.47 59.6965C107.978 60.1495 106.99 60.5 105.227 60.5V62.5ZM109.826 61.1669C110.802 60.266 111.318 59.1319 111.318 57.8182H109.318C109.318 58.5499 109.054 59.1582 108.47 59.6967L109.826 61.1669ZM111.318 57.8182C111.318 56.8509 111.069 55.9449 110.573 55.1204L108.859 56.1523C109.166 56.6612 109.318 57.2097 109.318 57.8182H111.318ZM110.575 55.1247C110.074 54.2838 109.364 53.6237 108.476 53.1431L107.524 54.9023C108.12 55.2248 108.554 55.6405 108.857 56.148L110.575 55.1247ZM108.483 53.1469C107.566 52.6417 106.514 52.4091 105.364 52.4091V54.4091C106.243 54.4091 106.949 54.5856 107.517 54.8986L108.483 53.1469ZM105.364 52.4091H99.6364V54.4091H105.364V52.4091ZM98.6364 53.4091V61.5H100.636V53.4091H98.6364ZM99.6364 51.9545H104.864V49.9545H99.6364V51.9545ZM104.864 51.9545C105.846 51.9545 106.764 51.7607 107.598 51.3529L106.72 49.5562C106.19 49.8151 105.578 49.9545 104.864 49.9545V51.9545ZM107.594 51.3548C108.436 50.9477 109.123 50.3616 109.629 49.5977L107.962 48.4932C107.665 48.9415 107.261 49.2947 106.724 49.5543L107.594 51.3548ZM109.624 49.6049C110.158 48.8143 110.409 47.902 110.409 46.9091H108.409C108.409 47.5525 108.251 48.0645 107.967 48.486L109.624 49.6049ZM110.409 46.9091C110.409 45.6258 109.951 44.5026 109.048 43.5997L107.634 45.0139C108.155 45.5353 108.409 46.147 108.409 46.9091H110.409ZM109.052 43.6035C108.073 42.6142 106.629 42.2273 104.955 42.2273V44.2273C106.371 44.2273 107.185 44.56 107.63 45.0102L109.052 43.6035ZM104.955 42.2273H99.6364V44.2273H104.955V42.2273ZM98.6364 43.2273V50.9545H100.636V43.2273H98.6364ZM120.21 63.2386L119.674 64.083L119.677 64.0845L120.21 63.2386ZM117.438 60.0909L116.539 60.53L116.541 60.5341L117.438 60.0909ZM117.438 50.6023L116.54 50.1611L116.538 50.1651L117.438 50.6023ZM120.21 47.4432L119.677 46.5973L119.674 46.5989L120.21 47.4432ZM128.494 47.4432L127.958 48.2875L127.961 48.2891L128.494 47.4432ZM131.267 50.6023L130.368 51.0394L130.37 51.0435L131.267 50.6023ZM131.267 60.0909L130.371 59.6477L130.369 59.6518L131.267 60.0909ZM128.494 63.2386L127.961 62.3928L127.958 62.3943L128.494 63.2386ZM127.312 61.0341L126.691 60.251L126.691 60.251L127.312 61.0341ZM129.028 58.6136L129.966 58.9616L129.966 58.9616L129.028 58.6136ZM129.028 52.1023L129.967 51.7566L129.967 51.7566L129.028 52.1023ZM127.312 49.6591L127.939 48.8797L127.939 48.8797L127.312 49.6591ZM121.403 49.6591L120.777 48.8797L120.777 48.8797L121.403 49.6591ZM119.688 52.1023L118.749 51.7566L118.749 51.7566L119.688 52.1023ZM119.688 58.6136L118.75 58.9616L118.75 58.9616L119.688 58.6136ZM121.403 61.0341L122.025 60.251L122.025 60.251L121.403 61.0341ZM124.358 63.3636C122.948 63.3636 121.755 63.0302 120.744 62.3928L119.677 64.0845C121.045 64.947 122.617 65.3636 124.358 65.3636V63.3636ZM120.746 62.3943C119.73 61.7498 118.926 60.8447 118.334 59.6477L116.541 60.5341C117.283 62.0341 118.326 63.2275 119.674 64.083L120.746 62.3943ZM118.336 59.6518C117.756 58.4649 117.449 57.0447 117.449 55.3636H115.449C115.449 57.2886 115.801 59.02 116.539 60.53L118.336 59.6518ZM117.449 55.3636C117.449 53.6661 117.756 52.2341 118.337 51.0394L116.538 50.1651C115.801 51.6826 115.449 53.4248 115.449 55.3636H117.449ZM118.335 51.0435C118.927 49.8388 119.732 48.9311 120.746 48.2875L119.674 46.5989C118.325 47.4553 117.281 48.6536 116.54 50.1611L118.335 51.0435ZM120.744 48.2891C121.755 47.6516 122.948 47.3182 124.358 47.3182V45.3182C122.617 45.3182 121.045 45.7348 119.677 46.5973L120.744 48.2891ZM124.358 47.3182C125.769 47.3182 126.956 47.6516 127.958 48.2875L129.03 46.5989C127.669 45.7348 126.099 45.3182 124.358 45.3182V47.3182ZM127.961 48.2891C128.981 48.9324 129.784 49.8384 130.368 51.0394L132.166 50.1651C131.432 48.654 130.386 47.454 129.028 46.5973L127.961 48.2891ZM130.37 51.0435C130.956 52.2371 131.267 53.6677 131.267 55.3636H133.267C133.267 53.4232 132.911 51.6796 132.164 50.1611L130.37 51.0435ZM131.267 55.3636C131.267 57.0431 130.957 58.4618 130.371 59.6477L132.163 60.5341C132.911 59.0231 133.267 57.2902 133.267 55.3636H131.267ZM130.369 59.6518C129.785 60.8452 128.983 61.7486 127.961 62.3928L129.028 64.0845C130.385 63.2287 131.431 62.0336 132.165 60.53L130.369 59.6518ZM127.958 62.3943C126.956 63.0302 125.769 63.3636 124.358 63.3636V65.3636C126.099 65.3636 127.669 64.9471 129.03 64.083L127.958 62.3943ZM124.358 62.9545C125.731 62.9545 126.949 62.5993 127.934 61.8172L126.691 60.251C126.13 60.6961 125.379 60.9545 124.358 60.9545V62.9545ZM127.934 61.8172C128.862 61.0809 129.537 60.1184 129.966 58.9616L128.091 58.2656C127.778 59.1089 127.309 59.76 126.691 60.251L127.934 61.8172ZM129.966 58.9616C130.382 57.8403 130.585 56.638 130.585 55.3636H128.585C128.585 56.4226 128.417 57.387 128.091 58.2656L129.966 58.9616ZM130.585 55.3636C130.585 54.0892 130.382 52.884 129.967 51.7566L128.09 52.448C128.417 53.3357 128.585 54.3047 128.585 55.3636H130.585ZM129.967 51.7566C129.538 50.5935 128.865 49.6239 127.939 48.8797L126.686 50.4385C127.306 50.9367 127.776 51.5959 128.09 52.448L129.967 51.7566ZM127.939 48.8797C126.954 48.0878 125.734 47.7273 124.358 47.7273V49.7273C125.376 49.7273 126.126 49.9879 126.686 50.4385L127.939 48.8797ZM124.358 47.7273C122.982 47.7273 121.762 48.0878 120.777 48.8797L122.03 50.4385C122.59 49.9879 123.34 49.7273 124.358 49.7273V47.7273ZM120.777 48.8797C119.851 49.6239 119.178 50.5935 118.749 51.7566L120.626 52.448C120.94 51.5959 121.41 50.9367 122.03 50.4385L120.777 48.8797ZM118.749 51.7566C118.334 52.884 118.131 54.0892 118.131 55.3636H120.131C120.131 54.3047 120.299 53.3357 120.626 52.448L118.749 51.7566ZM118.131 55.3636C118.131 56.638 118.334 57.8403 118.75 58.9616L120.625 58.2656C120.299 57.387 120.131 56.4226 120.131 55.3636H118.131ZM118.75 58.9616C119.179 60.1184 119.854 61.0809 120.782 61.8172L122.025 60.251C121.407 59.76 120.938 59.1089 120.625 58.2656L118.75 58.9616ZM120.782 61.8172C121.766 62.5993 122.985 62.9545 124.358 62.9545V60.9545C123.337 60.9545 122.586 60.6961 122.025 60.251L120.782 61.8172ZM139.304 63.2386L138.768 64.083L138.771 64.0845L139.304 63.2386ZM136.531 60.0909L135.633 60.53L135.635 60.5341L136.531 60.0909ZM136.531 50.6023L135.634 50.1611L135.632 50.1651L136.531 50.6023ZM139.304 47.4432L138.771 46.5973L138.768 46.5989L139.304 47.4432ZM147.588 47.4432L147.052 48.2875L147.055 48.2891L147.588 47.4432ZM150.361 50.6023L149.461 51.0394L149.463 51.0435L150.361 50.6023ZM150.361 60.0909L149.464 59.6477L149.462 59.6518L150.361 60.0909ZM147.588 63.2386L147.055 62.3928L147.052 62.3943L147.588 63.2386ZM146.406 61.0341L145.784 60.251L145.784 60.251L146.406 61.0341ZM148.122 58.6136L149.06 58.9616L149.06 58.9616L148.122 58.6136ZM148.122 52.1023L149.061 51.7566L149.061 51.7566L148.122 52.1023ZM146.406 49.6591L147.033 48.8797L147.033 48.8797L146.406 49.6591ZM140.497 49.6591L139.871 48.8797L139.871 48.8797L140.497 49.6591ZM138.781 52.1023L137.843 51.7566L137.843 51.7566L138.781 52.1023ZM138.781 58.6136L137.844 58.9616L137.844 58.9616L138.781 58.6136ZM140.497 61.0341L141.119 60.251L141.119 60.251L140.497 61.0341ZM143.452 63.3636C142.041 63.3636 140.848 63.0302 139.837 62.3928L138.771 64.0845C140.138 64.947 141.711 65.3636 143.452 65.3636V63.3636ZM139.84 62.3943C138.824 61.7498 138.019 60.8447 137.428 59.6477L135.635 60.5341C136.376 62.0341 137.42 63.2275 138.768 64.083L139.84 62.3943ZM137.43 59.6518C136.85 58.4649 136.543 57.0447 136.543 55.3636H134.543C134.543 57.2886 134.895 59.02 135.633 60.53L137.43 59.6518ZM136.543 55.3636C136.543 53.6661 136.85 52.2341 137.431 51.0394L135.632 50.1651C134.894 51.6826 134.543 53.4248 134.543 55.3636H136.543ZM137.429 51.0435C138.021 49.8388 138.826 48.9311 139.84 48.2875L138.768 46.5989C137.419 47.4553 136.375 48.6536 135.634 50.1611L137.429 51.0435ZM139.837 48.2891C140.848 47.6516 142.041 47.3182 143.452 47.3182V45.3182C141.711 45.3182 140.138 45.7348 138.771 46.5973L139.837 48.2891ZM143.452 47.3182C144.862 47.3182 146.05 47.6516 147.052 48.2875L148.124 46.5989C146.762 45.7348 145.193 45.3182 143.452 45.3182V47.3182ZM147.055 48.2891C148.075 48.9324 148.878 49.8384 149.461 51.0394L151.26 50.1651C150.526 48.654 149.48 47.454 148.121 46.5973L147.055 48.2891ZM149.463 51.0435C150.05 52.2371 150.361 53.6677 150.361 55.3636H152.361C152.361 53.4232 152.005 51.6796 151.258 50.1611L149.463 51.0435ZM150.361 55.3636C150.361 57.0431 150.051 58.4618 149.464 59.6477L151.257 60.5341C152.004 59.0231 152.361 57.2902 152.361 55.3636H150.361ZM149.462 59.6518C148.879 60.8452 148.076 61.7486 147.055 62.3928L148.121 64.0845C149.479 63.2287 150.524 62.0336 151.259 60.53L149.462 59.6518ZM147.052 62.3943C146.05 63.0302 144.862 63.3636 143.452 63.3636V65.3636C145.193 65.3636 146.762 64.9471 148.124 64.083L147.052 62.3943ZM143.452 62.9545C144.825 62.9545 146.043 62.5993 147.028 61.8172L145.784 60.251C145.224 60.6961 144.473 60.9545 143.452 60.9545V62.9545ZM147.028 61.8172C147.955 61.0809 148.63 60.1184 149.06 58.9616L147.185 58.2656C146.872 59.1089 146.403 59.76 145.784 60.251L147.028 61.8172ZM149.06 58.9616C149.476 57.8403 149.679 56.638 149.679 55.3636H147.679C147.679 56.4226 147.511 57.387 147.185 58.2656L149.06 58.9616ZM149.679 55.3636C149.679 54.0892 149.476 52.884 149.061 51.7566L147.184 52.448C147.511 53.3357 147.679 54.3047 147.679 55.3636H149.679ZM149.061 51.7566C148.632 50.5935 147.959 49.6239 147.033 48.8797L145.78 50.4385C146.399 50.9367 146.87 51.5959 147.184 52.448L149.061 51.7566ZM147.033 48.8797C146.048 48.0878 144.828 47.7273 143.452 47.7273V49.7273C144.47 49.7273 145.219 49.9879 145.78 50.4385L147.033 48.8797ZM143.452 47.7273C142.076 47.7273 140.856 48.0878 139.871 48.8797L141.124 50.4385C141.684 49.9879 142.434 49.7273 143.452 49.7273V47.7273ZM139.871 48.8797C138.945 49.6239 138.271 50.5935 137.843 51.7566L139.72 52.448C140.034 51.5959 140.504 50.9367 141.124 50.4385L139.871 48.8797ZM137.843 51.7566C137.428 52.884 137.224 54.0892 137.224 55.3636H139.224C139.224 54.3047 139.393 53.3357 139.72 52.448L137.843 51.7566ZM137.224 55.3636C137.224 56.638 137.427 57.8403 137.844 58.9616L139.719 58.2656C139.393 57.387 139.224 56.4226 139.224 55.3636H137.224ZM137.844 58.9616C138.273 60.1184 138.948 61.0809 139.875 61.8172L141.119 60.251C140.501 59.76 140.032 59.1089 139.719 58.2656L137.844 58.9616ZM139.875 61.8172C140.86 62.5993 142.079 62.9545 143.452 62.9545V60.9545C142.431 60.9545 141.68 60.6961 141.119 60.251L139.875 61.8172ZM157.955 57.6364L156.955 57.6501L156.985 59.8974L158.634 58.3699L157.955 57.6364ZM157.909 54.3182V53.3182H156.895L156.909 54.3319L157.909 54.3182ZM158.455 54.3182V55.3182H158.874L159.168 55.019L158.455 54.3182ZM166.091 46.5455V45.5455H165.672L165.378 45.8446L166.091 46.5455ZM169.409 46.5455L170.12 47.2486L171.804 45.5455H169.409V46.5455ZM161.273 54.7727V55.7727H161.69L161.984 55.4759L161.273 54.7727ZM161.045 54.7727V53.7727H160.653L160.366 54.0392L161.045 54.7727ZM155.455 64H154.455V65H155.455V64ZM155.455 40.7273V39.7273H154.455V40.7273H155.455ZM158.136 40.7273H159.136V39.7273H158.136V40.7273ZM158.136 64V65H159.136V64H158.136ZM166.545 64L165.761 64.6196L166.061 65H166.545V64ZM159.727 55.3636L159.029 54.6481L158.385 55.2768L158.942 55.9833L159.727 55.3636ZM161.636 53.5L162.42 52.879L161.731 52.0097L160.938 52.7844L161.636 53.5ZM169.955 64V65H172.023L170.738 63.379L169.955 64ZM158.954 57.6227L158.909 54.3045L156.909 54.3319L156.955 57.6501L158.954 57.6227ZM157.909 55.3182H158.455V53.3182H157.909V55.3182ZM159.168 55.019L166.804 47.2463L165.378 45.8446L157.741 53.6174L159.168 55.019ZM166.091 47.5455H169.409V45.5455H166.091V47.5455ZM168.698 45.8423L160.562 54.0696L161.984 55.4759L170.12 47.2486L168.698 45.8423ZM161.273 53.7727H161.045V55.7727H161.273V53.7727ZM160.366 54.0392L157.275 56.9028L158.634 58.3699L161.725 55.5063L160.366 54.0392ZM156.455 64V40.7273H154.455V64H156.455ZM155.455 41.7273H158.136V39.7273H155.455V41.7273ZM157.136 40.7273V64H159.136V40.7273H157.136ZM158.136 63H155.455V65H158.136V63ZM167.33 63.3804L160.512 54.744L158.942 55.9833L165.761 64.6196L167.33 63.3804ZM160.426 56.0792L162.335 54.2156L160.938 52.7844L159.029 54.6481L160.426 56.0792ZM160.853 54.121L169.171 64.621L170.738 63.379L162.42 52.879L160.853 54.121ZM169.955 63H166.545V65H169.955V63Z" fill="black"/>
<path d="M173.818 64V40.7273H181.955C183.576 40.7273 184.913 41.0076 185.966 41.5682C187.019 42.1212 187.803 42.8674 188.318 43.8068C188.833 44.7386 189.091 45.7727 189.091 46.9091C189.091 47.9091 188.913 48.7348 188.557 49.3864C188.208 50.0379 187.746 50.553 187.17 50.9318C186.602 51.3106 185.985 51.5909 185.318 51.7727V52C186.03 52.0455 186.746 52.2955 187.466 52.75C188.186 53.2045 188.788 53.8561 189.273 54.7045C189.758 55.553 190 56.5909 190 57.8182C190 58.9848 189.735 60.0341 189.205 60.9659C188.674 61.8977 187.837 62.6364 186.693 63.1818C185.549 63.7273 184.061 64 182.227 64H173.818ZM176.636 61.5H182.227C184.068 61.5 185.375 61.1439 186.148 60.4318C186.928 59.7121 187.318 58.8409 187.318 57.8182C187.318 57.0303 187.117 56.303 186.716 55.6364C186.314 54.9621 185.742 54.4242 185 54.0227C184.258 53.6136 183.379 53.4091 182.364 53.4091H176.636V61.5ZM176.636 50.9545H181.864C182.712 50.9545 183.477 50.7879 184.159 50.4545C184.848 50.1212 185.394 49.6515 185.795 49.0455C186.205 48.4394 186.409 47.7273 186.409 46.9091C186.409 45.8864 186.053 45.0189 185.341 44.3068C184.629 43.5871 183.5 43.2273 181.955 43.2273H176.636V50.9545ZM199.403 64.4091C198.297 64.4091 197.294 64.2008 196.392 63.7841C195.491 63.3598 194.775 62.75 194.244 61.9545C193.714 61.1515 193.449 60.1818 193.449 59.0455C193.449 58.0455 193.646 57.2348 194.04 56.6136C194.434 55.9848 194.96 55.4924 195.619 55.1364C196.278 54.7803 197.006 54.5152 197.801 54.3409C198.604 54.1591 199.411 54.0152 200.222 53.9091C201.282 53.7727 202.142 53.6705 202.801 53.6023C203.468 53.5265 203.953 53.4015 204.256 53.2273C204.566 53.053 204.722 52.75 204.722 52.3182V52.2273C204.722 51.1061 204.415 50.2348 203.801 49.6136C203.195 48.9924 202.275 48.6818 201.04 48.6818C199.759 48.6818 198.756 48.9621 198.028 49.5227C197.301 50.0833 196.79 50.6818 196.494 51.3182L193.949 50.4091C194.403 49.3485 195.009 48.5227 195.767 47.9318C196.532 47.3333 197.366 46.9167 198.267 46.6818C199.176 46.4394 200.07 46.3182 200.949 46.3182C201.509 46.3182 202.153 46.3864 202.881 46.5227C203.616 46.6515 204.324 46.9205 205.006 47.3295C205.695 47.7386 206.267 48.3561 206.722 49.1818C207.176 50.0076 207.403 51.1136 207.403 52.5V64H204.722V61.6364H204.585C204.403 62.0152 204.1 62.4205 203.676 62.8523C203.252 63.2841 202.688 63.6515 201.983 63.9545C201.278 64.2576 200.419 64.4091 199.403 64.4091ZM199.812 62C200.873 62 201.767 61.7917 202.494 61.375C203.229 60.9583 203.782 60.4205 204.153 59.7614C204.532 59.1023 204.722 58.4091 204.722 57.6818V55.2273C204.608 55.3636 204.358 55.4886 203.972 55.6023C203.593 55.7083 203.153 55.803 202.653 55.8864C202.161 55.9621 201.68 56.0303 201.21 56.0909C200.748 56.1439 200.373 56.1894 200.085 56.2273C199.388 56.3182 198.737 56.4659 198.131 56.6705C197.532 56.8674 197.047 57.1667 196.676 57.5682C196.313 57.9621 196.131 58.5 196.131 59.1818C196.131 60.1136 196.475 60.8182 197.165 61.2955C197.862 61.7652 198.744 62 199.812 62ZM213.401 70.5455C212.946 70.5455 212.541 70.5076 212.185 70.4318C211.829 70.3636 211.582 70.2955 211.446 70.2273L212.128 67.8636C212.779 68.0303 213.355 68.0909 213.855 68.0455C214.355 68 214.798 67.7765 215.185 67.375C215.579 66.9811 215.938 66.3409 216.264 65.4545L216.764 64.0909L210.31 46.5455H213.219L218.037 60.4545H218.219L223.037 46.5455H225.946L218.537 66.5455C218.204 67.447 217.791 68.1932 217.298 68.7841C216.806 69.3826 216.234 69.8258 215.582 70.1136C214.938 70.4015 214.211 70.5455 213.401 70.5455Z" fill="#D27C2C"/>
<path d="M173.818 64H172.818V65H173.818V64ZM173.818 40.7273V39.7273H172.818V40.7273H173.818ZM185.966 41.5682L185.496 42.4509L185.501 42.4535L185.966 41.5682ZM188.318 43.8068L187.441 44.2877L187.443 44.2906L188.318 43.8068ZM188.557 49.3864L187.679 48.9068L187.675 48.9147L188.557 49.3864ZM187.17 50.9318L186.621 50.0964L186.616 50.0998L187.17 50.9318ZM185.318 51.7727L185.055 50.808L184.318 51.0089V51.7727H185.318ZM185.318 52H184.318V52.9382L185.254 52.998L185.318 52ZM187.466 52.75L186.932 53.5955L186.932 53.5955L187.466 52.75ZM189.205 60.9659L190.074 61.4605L190.074 61.4605L189.205 60.9659ZM186.693 63.1818L186.263 62.2792L186.263 62.2792L186.693 63.1818ZM176.636 61.5H175.636V62.5H176.636V61.5ZM186.148 60.4318L186.825 61.1672L186.826 61.1669L186.148 60.4318ZM186.716 55.6364L185.857 56.148L185.859 56.1523L186.716 55.6364ZM185 54.0227L184.517 54.8986L184.524 54.9023L185 54.0227ZM176.636 53.4091V52.4091H175.636V53.4091H176.636ZM176.636 50.9545H175.636V51.9545H176.636V50.9545ZM184.159 50.4545L183.724 49.5543L183.72 49.5562L184.159 50.4545ZM185.795 49.0455L184.967 48.486L184.962 48.4932L185.795 49.0455ZM185.341 44.3068L184.63 45.0102L184.634 45.0139L185.341 44.3068ZM176.636 43.2273V42.2273H175.636V43.2273H176.636ZM174.818 64V40.7273H172.818V64H174.818ZM173.818 41.7273H181.955V39.7273H173.818V41.7273ZM181.955 41.7273C183.468 41.7273 184.63 41.9899 185.496 42.4509L186.436 40.6855C185.196 40.0252 183.684 39.7273 181.955 39.7273V41.7273ZM185.501 42.4535C186.4 42.9256 187.031 43.5394 187.441 44.2876L189.195 43.326C188.575 42.1955 187.638 41.3168 186.431 40.6828L185.501 42.4535ZM187.443 44.2906C187.871 45.0644 188.091 45.9302 188.091 46.9091H190.091C190.091 45.6152 189.796 44.4129 189.193 43.323L187.443 44.2906ZM188.091 46.9091C188.091 47.7972 187.932 48.4445 187.679 48.9068L189.434 49.8659C189.894 49.0252 190.091 48.0209 190.091 46.9091H188.091ZM187.675 48.9147C187.399 49.4301 187.047 49.8158 186.621 50.0964L187.72 51.7672C188.445 51.2902 189.017 50.6457 189.439 49.858L187.675 48.9147ZM186.616 50.0998C186.138 50.4182 185.619 50.6541 185.055 50.808L185.581 52.7375C186.35 52.5277 187.066 52.203 187.725 51.7639L186.616 50.0998ZM184.318 51.7727V52H186.318V51.7727H184.318ZM185.254 52.998C185.77 53.0309 186.327 53.2131 186.932 53.5955L188 51.9045C187.166 51.3778 186.291 51.06 185.382 51.002L185.254 52.998ZM186.932 53.5955C187.494 53.9505 187.989 54.473 188.404 55.2007L190.141 54.2084C189.587 53.2391 188.877 52.4586 188 51.9045L186.932 53.5955ZM188.404 55.2007C188.784 55.8641 189 56.721 189 57.8182H191C191 56.4608 190.732 55.242 190.141 54.2084L188.404 55.2007ZM189 57.8182C189 58.8271 188.772 59.7033 188.335 60.4713L190.074 61.4605C190.697 60.3649 191 59.1425 191 57.8182H189ZM188.335 60.4713C187.924 61.195 187.257 61.8053 186.263 62.2792L187.124 64.0845C188.418 63.4674 189.425 62.6005 190.074 61.4605L188.335 60.4713ZM186.263 62.2792C185.3 62.7385 183.973 63 182.227 63V65C184.148 65 185.799 64.7161 187.124 64.0845L186.263 62.2792ZM182.227 63H173.818V65H182.227V63ZM176.636 62.5H182.227V60.5H176.636V62.5ZM182.227 62.5C184.147 62.5 185.772 62.1384 186.825 61.1672L185.47 59.6965C184.978 60.1495 183.99 60.5 182.227 60.5V62.5ZM186.826 61.1669C187.802 60.266 188.318 59.1319 188.318 57.8182H186.318C186.318 58.5499 186.054 59.1582 185.47 59.6967L186.826 61.1669ZM188.318 57.8182C188.318 56.8509 188.069 55.9449 187.573 55.1204L185.859 56.1523C186.166 56.6612 186.318 57.2097 186.318 57.8182H188.318ZM187.575 55.1247C187.074 54.2838 186.364 53.6237 185.476 53.1431L184.524 54.9023C185.12 55.2248 185.554 55.6405 185.857 56.148L187.575 55.1247ZM185.483 53.1469C184.566 52.6417 183.514 52.4091 182.364 52.4091V54.4091C183.243 54.4091 183.949 54.5856 184.517 54.8986L185.483 53.1469ZM182.364 52.4091H176.636V54.4091H182.364V52.4091ZM175.636 53.4091V61.5H177.636V53.4091H175.636ZM176.636 51.9545H181.864V49.9545H176.636V51.9545ZM181.864 51.9545C182.846 51.9545 183.764 51.7607 184.598 51.3529L183.72 49.5562C183.19 49.8151 182.578 49.9545 181.864 49.9545V51.9545ZM184.594 51.3548C185.436 50.9477 186.123 50.3616 186.629 49.5977L184.962 48.4932C184.665 48.9415 184.261 49.2947 183.724 49.5543L184.594 51.3548ZM186.624 49.6049C187.158 48.8143 187.409 47.902 187.409 46.9091H185.409C185.409 47.5525 185.251 48.0645 184.967 48.486L186.624 49.6049ZM187.409 46.9091C187.409 45.6258 186.951 44.5026 186.048 43.5997L184.634 45.0139C185.155 45.5353 185.409 46.147 185.409 46.9091H187.409ZM186.052 43.6035C185.073 42.6142 183.629 42.2273 181.955 42.2273V44.2273C183.371 44.2273 184.185 44.56 184.63 45.0102L186.052 43.6035ZM181.955 42.2273H176.636V44.2273H181.955V42.2273ZM175.636 43.2273V50.9545H177.636V43.2273H175.636ZM196.392 63.7841L195.966 64.6889L195.973 64.6918L196.392 63.7841ZM194.244 61.9545L193.41 62.5056L193.412 62.5092L194.244 61.9545ZM194.04 56.6136L194.884 57.1492L194.887 57.1446L194.04 56.6136ZM197.801 54.3409L198.015 55.3178L198.022 55.3162L197.801 54.3409ZM200.222 53.9091L200.094 52.9173L200.092 52.9175L200.222 53.9091ZM202.801 53.6023L202.904 54.597L202.914 54.5959L202.801 53.6023ZM204.256 53.2273L203.766 52.3551L203.757 52.3604L204.256 53.2273ZM203.801 49.6136L203.085 50.312L203.09 50.3164L203.801 49.6136ZM198.028 49.5227L198.639 50.3147L198.639 50.3147L198.028 49.5227ZM196.494 51.3182L196.158 52.2599L197.017 52.5668L197.401 51.7393L196.494 51.3182ZM193.949 50.4091L193.03 50.0152L192.611 50.993L193.613 51.3508L193.949 50.4091ZM195.767 47.9318L196.382 48.7203L196.383 48.7195L195.767 47.9318ZM198.267 46.6818L198.519 47.6495L198.525 47.6481L198.267 46.6818ZM202.881 46.5227L202.696 47.5057L202.708 47.5077L202.881 46.5227ZM205.006 47.3295L204.491 48.187L204.495 48.1895L205.006 47.3295ZM206.722 49.1818L205.846 49.664L205.846 49.664L206.722 49.1818ZM207.403 64V65H208.403V64H207.403ZM204.722 64H203.722V65H204.722V64ZM204.722 61.6364H205.722V60.6364H204.722V61.6364ZM204.585 61.6364V60.6364H203.956L203.684 61.2036L204.585 61.6364ZM203.676 62.8523L204.389 63.5531L204.389 63.5531L203.676 62.8523ZM201.983 63.9545L201.588 63.0359L201.588 63.0359L201.983 63.9545ZM202.494 61.375L202.001 60.5051L201.997 60.5073L202.494 61.375ZM204.153 59.7614L203.286 59.2631L203.282 59.2706L204.153 59.7614ZM204.722 55.2273H205.722V52.4652L203.953 54.5871L204.722 55.2273ZM203.972 55.6023L204.241 56.5653L204.254 56.5616L203.972 55.6023ZM202.653 55.8864L202.805 56.8748L202.818 56.8728L202.653 55.8864ZM201.21 56.0909L201.324 57.0845L201.338 57.0827L201.21 56.0909ZM200.085 56.2273L200.215 57.2189L200.216 57.2187L200.085 56.2273ZM198.131 56.6705L198.443 57.6204L198.45 57.6179L198.131 56.6705ZM196.676 57.5682L195.942 56.8893L195.941 56.8899L196.676 57.5682ZM197.165 61.2955L196.596 62.1177L196.606 62.1247L197.165 61.2955ZM199.403 63.4091C198.426 63.4091 197.567 63.2256 196.812 62.8764L195.973 64.6918C197.02 65.1759 198.169 65.4091 199.403 65.4091V63.4091ZM196.818 62.8793C196.074 62.5291 195.501 62.0372 195.076 61.3998L193.412 62.5092C194.048 63.4628 194.907 64.1906 195.966 64.6889L196.818 62.8793ZM195.079 61.4035C194.675 60.7917 194.449 60.022 194.449 59.0455H192.449C192.449 60.3416 192.753 61.5113 193.41 62.5056L195.079 61.4035ZM194.449 59.0455C194.449 58.1691 194.622 57.5624 194.884 57.1492L193.195 56.0781C192.669 56.9073 192.449 57.9218 192.449 59.0455H194.449ZM194.887 57.1446C195.188 56.6637 195.586 56.2909 196.095 56.0162L195.144 54.2565C194.334 54.694 193.679 55.3059 193.192 56.0827L194.887 57.1446ZM196.095 56.0162C196.665 55.7082 197.303 55.4737 198.015 55.3177L197.587 53.3641C196.708 53.5566 195.892 53.8524 195.144 54.2565L196.095 56.0162ZM198.022 55.3162C198.795 55.1412 199.572 55.0027 200.351 54.9006L200.092 52.9175C199.25 53.0276 198.413 53.177 197.58 53.3656L198.022 55.3162ZM200.349 54.9009C201.406 54.7651 202.257 54.6639 202.904 54.597L202.698 52.6076C202.028 52.677 201.159 52.7804 200.094 52.9173L200.349 54.9009ZM202.914 54.5959C203.615 54.5163 204.268 54.3738 204.754 54.0942L203.757 52.3604C203.637 52.4292 203.321 52.5368 202.688 52.6087L202.914 54.5959ZM204.745 54.0994C205.443 53.7078 205.722 53.0208 205.722 52.3182H203.722C203.722 52.4169 203.704 52.4356 203.715 52.4132C203.721 52.4018 203.731 52.3874 203.744 52.3739C203.75 52.3676 203.756 52.3629 203.76 52.3596C203.764 52.3563 203.767 52.3549 203.766 52.3551L204.745 54.0994ZM205.722 52.3182V52.2273H203.722V52.3182H205.722ZM205.722 52.2273C205.722 50.921 205.36 49.7683 204.513 48.9109L203.09 50.3164C203.47 50.7014 203.722 51.2911 203.722 52.2273H205.722ZM204.517 48.9153C203.655 48.0318 202.429 47.6818 201.04 47.6818V49.6818C202.121 49.6818 202.735 49.953 203.085 50.312L204.517 48.9153ZM201.04 47.6818C199.624 47.6818 198.377 47.9911 197.418 48.7307L198.639 50.3147C199.134 49.9332 199.895 49.6818 201.04 49.6818V47.6818ZM197.418 48.7307C196.601 49.3601 195.968 50.0771 195.587 50.8971L197.401 51.7393C197.612 51.2865 198.001 50.8065 198.639 50.3147L197.418 48.7307ZM196.831 50.3764L194.285 49.4673L193.613 51.3508L196.158 52.2599L196.831 50.3764ZM194.868 50.803C195.269 49.8664 195.782 49.1885 196.382 48.7203L195.152 47.1433C194.237 47.857 193.537 48.8306 193.03 50.0152L194.868 50.803ZM196.383 48.7195C197.045 48.2016 197.756 47.8484 198.519 47.6495L198.015 45.7141C196.975 45.9849 196.019 46.4651 195.151 47.1441L196.383 48.7195ZM198.525 47.6481C199.356 47.4265 200.163 47.3182 200.949 47.3182V45.3182C199.977 45.3182 198.997 45.4523 198.009 45.7156L198.525 47.6481ZM200.949 47.3182C201.432 47.3182 202.012 47.3772 202.696 47.5056L203.065 45.5399C202.295 45.3955 201.587 45.3182 200.949 45.3182V47.3182ZM202.708 47.5077C203.314 47.614 203.908 47.8369 204.491 48.187L205.52 46.4721C204.74 46.004 203.917 45.6891 203.053 45.5377L202.708 47.5077ZM204.495 48.1895C205.006 48.4927 205.462 48.9668 205.846 49.664L207.598 48.6996C207.072 47.7453 206.384 46.9846 205.516 46.4696L204.495 48.1895ZM205.846 49.664C206.189 50.2887 206.403 51.2085 206.403 52.5H208.403C208.403 51.0188 208.163 49.7264 207.598 48.6996L205.846 49.664ZM206.403 52.5V64H208.403V52.5H206.403ZM207.403 63H204.722V65H207.403V63ZM205.722 64V61.6364H203.722V64H205.722ZM204.722 60.6364H204.585V62.6364H204.722V60.6364ZM203.684 61.2036C203.565 61.4501 203.341 61.7665 202.963 62.1515L204.389 63.5531C204.86 63.0744 205.241 62.5802 205.487 62.0691L203.684 61.2036ZM202.963 62.1515C202.65 62.4696 202.204 62.771 201.588 63.0359L202.378 64.8732C203.171 64.532 203.854 64.0986 204.389 63.5531L202.963 62.1515ZM201.588 63.0359C201.041 63.2709 200.324 63.4091 199.403 63.4091V65.4091C200.513 65.4091 201.515 65.2442 202.378 64.8732L201.588 63.0359ZM199.812 63C201.002 63 202.078 62.7662 202.991 62.2427L201.997 60.5073C201.456 60.8172 200.744 61 199.812 61V63ZM202.988 62.2449C203.862 61.7493 204.554 61.0876 205.025 60.2521L203.282 59.2706C203.01 59.7533 202.597 60.1674 202.001 60.5051L202.988 62.2449ZM205.02 60.2596C205.482 59.4561 205.722 58.592 205.722 57.6818H203.722C203.722 58.2262 203.582 58.7485 203.286 59.2631L205.02 60.2596ZM205.722 57.6818V55.2273H203.722V57.6818H205.722ZM203.953 54.5871C203.991 54.542 204.021 54.5198 204.027 54.5154C204.034 54.5105 204.028 54.5158 204.002 54.5289C203.947 54.5561 203.848 54.5962 203.689 54.6429L204.254 56.5616C204.481 56.4947 204.701 56.4155 204.896 56.3177C205.081 56.2251 205.309 56.085 205.49 55.8675L203.953 54.5871ZM203.702 54.6393C203.366 54.7334 202.963 54.821 202.489 54.9L202.818 56.8728C203.344 56.7851 203.82 56.6833 204.241 56.5652L203.702 54.6393ZM202.501 54.898C202.017 54.9726 201.544 55.0396 201.082 55.0991L201.338 57.0827C201.816 57.021 202.305 56.9517 202.805 56.8747L202.501 54.898ZM201.096 55.0974C200.631 55.1508 200.25 55.1969 199.955 55.2358L200.216 57.2187C200.496 57.1819 200.865 57.1371 201.324 57.0844L201.096 55.0974ZM199.956 55.2357C199.2 55.3342 198.485 55.4956 197.811 55.723L198.45 57.6179C198.989 57.4362 199.576 57.3022 200.215 57.2189L199.956 55.2357ZM197.818 55.7206C197.083 55.9625 196.445 56.3453 195.942 56.8893L197.41 58.247C197.65 57.9881 197.981 57.7724 198.443 57.6203L197.818 55.7206ZM195.941 56.8899C195.365 57.5148 195.131 58.3195 195.131 59.1818H197.131C197.131 58.6805 197.26 58.4095 197.411 58.2465L195.941 56.8899ZM195.131 59.1818C195.131 60.3991 195.603 61.4306 196.596 62.1176L197.734 60.4733C197.348 60.2058 197.131 59.8282 197.131 59.1818H195.131ZM196.606 62.1247C197.508 62.7324 198.599 63 199.812 63V61C198.89 61 198.216 60.7979 197.724 60.4662L196.606 62.1247ZM212.185 70.4318L212.393 69.4537L212.383 69.4516L212.373 69.4497L212.185 70.4318ZM211.446 70.2273L210.485 69.9501L210.255 70.7496L210.999 71.1217L211.446 70.2273ZM212.128 67.8636L212.376 66.8948L211.436 66.6544L211.167 67.5865L212.128 67.8636ZM213.855 68.0455L213.765 67.0496L213.765 67.0496L213.855 68.0455ZM215.185 67.375L214.478 66.6679L214.471 66.6747L214.464 66.6816L215.185 67.375ZM216.264 65.4545L217.203 65.7995L217.203 65.7988L216.264 65.4545ZM216.764 64.0909L217.703 64.4352L217.83 64.0903L217.703 63.7457L216.764 64.0909ZM210.31 46.5455V45.5455H208.876L209.371 46.8907L210.31 46.5455ZM213.219 46.5455L214.164 46.2181L213.931 45.5455H213.219V46.5455ZM218.037 60.4545L217.092 60.7819L217.325 61.4545H218.037V60.4545ZM218.219 60.4545V61.4545H218.931L219.164 60.7819L218.219 60.4545ZM223.037 46.5455V45.5455H222.325L222.092 46.2181L223.037 46.5455ZM225.946 46.5455L226.884 46.8928L227.383 45.5455H225.946V46.5455ZM218.537 66.5455L217.599 66.1981L217.599 66.1987L218.537 66.5455ZM217.298 68.7841L216.53 68.1439L216.526 68.1487L217.298 68.7841ZM215.582 70.1136L215.178 69.1989L215.174 69.2007L215.582 70.1136ZM213.401 69.5455C213 69.5455 212.666 69.5118 212.393 69.4537L211.977 71.4099C212.415 71.5033 212.893 71.5455 213.401 71.5455V69.5455ZM212.373 69.4497C212.211 69.4187 212.089 69.3904 212 69.3658C211.903 69.3391 211.878 69.3252 211.893 69.3328L210.999 71.1217C211.271 71.2578 211.64 71.3457 211.997 71.414L212.373 69.4497ZM212.407 70.5044L213.089 68.1408L211.167 67.5865L210.485 69.9501L212.407 70.5044ZM211.88 68.8324C212.607 69.0184 213.301 69.1 213.946 69.0413L213.765 67.0496C213.409 67.0819 212.952 67.0422 212.376 66.8948L211.88 68.8324ZM213.946 69.0413C214.712 68.9717 215.372 68.6228 215.905 68.0684L214.464 66.6816C214.225 66.9302 213.998 67.0283 213.765 67.0496L213.946 69.0413ZM215.892 68.0821C216.436 67.538 216.857 66.74 217.203 65.7995L215.326 65.1096C215.02 65.9418 214.721 66.4241 214.478 66.6679L215.892 68.0821ZM217.203 65.7988L217.703 64.4352L215.825 63.7467L215.325 65.1103L217.203 65.7988ZM217.703 63.7457L211.248 46.2002L209.371 46.8907L215.826 64.4362L217.703 63.7457ZM210.31 47.5455H213.219V45.5455H210.31V47.5455ZM212.274 46.8728L217.092 60.7819L218.982 60.1272L214.164 46.2181L212.274 46.8728ZM218.037 61.4545H218.219V59.4545H218.037V61.4545ZM219.164 60.7819L223.982 46.8728L222.092 46.2181L217.274 60.1272L219.164 60.7819ZM223.037 47.5455H225.946V45.5455H223.037V47.5455ZM225.008 46.1981L217.599 66.1981L219.475 66.8928L226.884 46.8928L225.008 46.1981ZM217.599 66.1987C217.296 67.019 216.934 67.6591 216.53 68.1439L218.067 69.4243C218.647 68.7272 219.112 67.875 219.475 66.8923L217.599 66.1987ZM216.526 68.1487C216.124 68.6375 215.675 68.9796 215.178 69.1989L215.987 71.0283C216.793 70.6719 217.488 70.1277 218.071 69.4195L216.526 68.1487ZM215.174 69.2007C214.677 69.4232 214.091 69.5455 213.401 69.5455V71.5455C214.331 71.5455 215.2 71.3798 215.991 71.0266L215.174 69.2007Z" fill="black"/>
</svg>
